<svg xmlns="http://www.w3.org/2000/svg" xmlns:xlink="http://www.w3.org/1999/xlink" viewBox="0 0 1366 768"><defs><style>.cls-1{fill:#2a78ff;}.cls-2{fill:#3280ff;}.cls-3{fill:url(#linear-gradient);}</style><linearGradient id="linear-gradient" x1="42.87" y1="654.5" x2="1419.53" y2="654.5" gradientUnits="userSpaceOnUse"><stop offset="0" stop-color="#2a87ff"/><stop offset="1" stop-color="#2a78ff"/></linearGradient></defs><title>landingbg</title><g id="Layer_1" data-name="Layer 1"><polygon class="cls-1" points="0 0 0 729 1366 556 1366 0 0 0"/><circle class="cls-2" cx="23" cy="249" r="84"/><circle class="cls-2" cx="37.5" cy="494.5" r="161.5"/><circle class="cls-2" cx="1304.6" cy="11.39" r="25.4"/><circle class="cls-2" cx="1357.4" cy="77.19" r="15.6"/><circle class="cls-2" cx="1212.51" cy="77.3" r="35.7"/><circle class="cls-2" cx="1310.57" cy="110.41" r="30.48"/><circle class="cls-2" cx="1074.5" cy="545.5" r="57.5"/><circle class="cls-2" cx="504.5" cy="79.5" r="104.5"/><circle class="cls-2" cx="778.5" cy="333.5" r="95.5"/><circle class="cls-2" cx="1341.5" cy="296.5" r="45.5"/><circle class="cls-2" cx="501" cy="539" r="108"/><circle class="cls-2" cx="970.5" cy="164.5" r="68.5"/><circle class="cls-2" cx="1131.5" cy="408.5" r="68.5"/></g><g id="Layer_2" data-name="Layer 2"><polygon class="cls-3" points="0 728 0 754 1366 703 1366 555 0 728"/></g></svg>